<svg width="32" height="32" viewBox="0 0 32 32" fill="none" xmlns="http://www.w3.org/2000/svg">
<path fill-rule="evenodd" clip-rule="evenodd" d="M15.9985 9.83923C14.7804 9.83923 13.5896 10.2005 12.5767 10.8772C11.5638 11.554 10.7744 12.516 10.3082 13.6414C9.84202 14.7668 9.72005 16.0052 9.95771 17.2C10.1954 18.3948 10.782 19.4922 11.6433 20.3536C12.5047 21.215 13.6022 21.8016 14.7969 22.0392C15.9917 22.2769 17.2301 22.1549 18.3556 21.6888C19.481 21.2226 20.4429 20.4331 21.1197 19.4203C21.7965 18.4074 22.1577 17.2166 22.1577 15.9984C22.1577 14.3649 21.5088 12.7983 20.3537 11.6432C19.1987 10.4881 17.6321 9.83923 15.9985 9.83923ZM15.9985 19.9979C15.2075 19.9979 14.4343 19.7633 13.7766 19.3238C13.1188 18.8844 12.6062 18.2597 12.3035 17.5289C12.0008 16.7981 11.9216 15.994 12.0759 15.2182C12.2302 14.4423 12.6112 13.7297 13.1705 13.1704C13.7298 12.611 14.4425 12.2301 15.2183 12.0758C15.9941 11.9215 16.7983 12.0007 17.5291 12.3034C18.2599 12.6061 18.8845 13.1187 19.324 13.7764C19.7634 14.4341 19.998 15.2074 19.998 15.9984C19.998 17.0591 19.5766 18.0764 18.8266 18.8265C18.0765 19.5765 17.0593 19.9979 15.9985 19.9979Z" fill="#292C33"/>
<path d="M23.843 9.59368C23.843 10.3889 23.1984 11.0335 22.4032 11.0335C21.608 11.0335 20.9634 10.3889 20.9634 9.59368C20.9634 8.79849 21.608 8.15387 22.4032 8.15387C23.1984 8.15387 23.843 8.79849 23.843 9.59368Z" fill="#292C33"/>
<path fill-rule="evenodd" clip-rule="evenodd" d="M15.9984 4C12.7404 4 12.3317 4.0136 11.0511 4.07199C9.18262 4.03848 7.37477 4.73493 6.01173 6.01333C4.73312 7.37623 4.03663 9.18418 4.07039 11.0527C4.0136 12.3317 4 12.7404 4 15.9984C4 19.2564 4.0136 19.6651 4.07199 20.9457C4.03848 22.8142 4.73493 24.622 6.01333 25.9851C7.37623 27.2637 9.18418 27.9602 11.0527 27.9264C12.3325 27.9848 12.742 27.9984 16 27.9984C19.258 27.9984 19.6667 27.9848 20.9473 27.9264C22.8158 27.9599 24.6236 27.2635 25.9867 25.9851C27.2653 24.6222 27.9618 22.8142 27.928 20.9457C27.9864 19.6659 28 19.2564 28 15.9984C28 12.7404 27.9864 12.3317 27.928 11.0511C27.9615 9.18262 27.2651 7.37477 25.9867 6.01173C24.6238 4.73312 22.8158 4.03663 20.9473 4.07039C19.6651 4.0136 19.2564 4 15.9984 4ZM15.9984 6.15971C19.198 6.15971 19.5811 6.17171 20.8466 6.2293C22.1732 6.18409 23.466 6.65389 24.4541 7.54033C25.3405 8.52843 25.8103 9.82117 25.7651 11.1478C25.8227 12.4157 25.8371 12.7988 25.8371 15.9984C25.8371 19.198 25.8251 19.5811 25.7675 20.8466C25.8127 22.1732 25.3429 23.466 24.4565 24.4541C23.4684 25.3406 22.1756 25.8104 20.849 25.7651C19.5835 25.8227 19.2044 25.8347 16.0008 25.8347C12.7972 25.8347 12.4181 25.8227 11.1526 25.7651C9.82597 25.8103 8.53323 25.3405 7.54513 24.4541C6.65861 23.466 6.18881 22.1733 6.2341 20.8466C6.17411 19.5811 6.15971 19.202 6.15971 15.9984C6.15971 12.7948 6.17171 12.4157 6.2293 11.1502C6.18409 9.82357 6.65389 8.53083 7.54033 7.54273C8.52904 6.6557 9.82275 6.18586 11.1502 6.2317C12.4157 6.17411 12.7988 6.15971 15.9984 6.15971Z" fill="#292C33"/>
</svg>
