<svg width="166" height="105" viewBox="0 0 166 105" fill="none" xmlns="http://www.w3.org/2000/svg">
<path d="M39.4463 71.6546L15.0345 0.837053L14.9184 0.5H14.5618H2H1.28174L1.5311 1.17358L33.9274 88.6858L34.0483 89.0122H34.3963H44.6141H44.9639L45.0838 88.6836L74.4643 8.18629L77.5284 1.20085L77.8359 0.5H77.0706H64.4486H64.0927L63.9761 0.83635L39.4463 71.6546ZM100.951 78.5758V1V0.5H100.451H88.8511H88.3511V1V88.5122V89.0122H88.8511H161.451H162.974L161.747 88.1095L148.925 78.6731L148.792 78.5758H148.628H100.951Z" fill="black" stroke="black"/>
<path d="M95.3223 95.3223H93.1309L92.1465 101H90.7578L91.7422 95.3223H89.5742L89.7793 94.1738H95.5273L95.3223 95.3223ZM107.844 94.1738L107.094 98.668C106.988 99.4258 106.658 100.025 106.104 100.467C105.553 100.904 104.867 101.115 104.047 101.1C103.262 101.084 102.65 100.854 102.213 100.408C101.775 99.959 101.596 99.3809 101.674 98.6738L102.43 94.1738H103.812L103.051 98.6797C103.008 99.0742 103.074 99.3828 103.25 99.6055C103.43 99.8281 103.721 99.9453 104.123 99.957C104.541 99.9727 104.889 99.873 105.166 99.6582C105.443 99.4395 105.617 99.125 105.688 98.7148L106.455 94.1738H107.844ZM119.656 101H118.32L116.123 96.2832L115.303 101H113.914L115.098 94.1738H116.439L118.637 98.8965L119.457 94.1738H120.84L119.656 101ZM128.521 101H127.133L128.322 94.1738H129.705L128.521 101ZM141.746 101H140.41L138.213 96.2832L137.393 101H136.004L137.188 94.1738H138.529L140.727 98.8965L141.547 94.1738H142.93L141.746 101ZM154.936 100.145C154.439 100.723 153.617 101.037 152.469 101.088L152.129 101.094C151.547 101.086 151.049 100.941 150.635 100.66C150.221 100.379 149.92 99.9902 149.732 99.4941C149.545 98.9941 149.484 98.4355 149.551 97.8184L149.586 97.4961C149.707 96.4297 150.08 95.5879 150.705 94.9707C151.334 94.3535 152.111 94.0566 153.037 94.0801C153.791 94.0957 154.383 94.3008 154.812 94.6953C155.246 95.0859 155.494 95.6406 155.557 96.3594L154.221 96.3535C154.15 95.6191 153.746 95.2402 153.008 95.2168C152.484 95.1973 152.045 95.3711 151.689 95.7383C151.338 96.1016 151.109 96.6152 151.004 97.2793L150.934 97.8066C150.906 98.0605 150.902 98.3145 150.922 98.5684C150.953 98.998 151.082 99.334 151.309 99.5762C151.535 99.8145 151.848 99.9395 152.246 99.9512C152.773 99.959 153.213 99.8496 153.564 99.623L153.799 98.4512H152.375L152.562 97.4141H155.357L154.936 100.145Z" fill="black"/>
</svg>
